<svg id="visual" viewBox="0 0 960 300" width="960" height="300" xmlns="http://www.w3.org/2000/svg" xmlns:xlink="http://www.w3.org/1999/xlink" version="1.1"><rect x="0" y="0" width="960" height="300" fill="#FF0066"></rect><g transform="translate(484.80497096490393 161.0851811203961)"><path d="M42.3 -81C57.4 -64.7 73.7 -58.3 85 -46.5C96.4 -34.7 102.7 -17.3 101.5 -0.7C100.4 16 91.8 32 81.7 46C71.6 60 60 72 46.2 76.5C32.3 81 16.2 78 -3.3 83.8C-22.8 89.6 -45.7 104.1 -60.1 99.9C-74.5 95.8 -80.6 72.9 -90 53.1C-99.4 33.3 -112.2 16.7 -111.2 0.6C-110.2 -15.5 -95.4 -31 -80.9 -42C-66.4 -52.9 -52.2 -59.4 -38.8 -76.6C-25.3 -93.9 -12.7 -121.9 0.5 -122.8C13.7 -123.7 27.3 -97.3 42.3 -81" fill="#BB004B"></path></g></svg>