<svg id="visual" viewBox="0 0 960 300" width="960" height="300" xmlns="http://www.w3.org/2000/svg" xmlns:xlink="http://www.w3.org/1999/xlink" version="1.1"><rect x="0" y="0" width="960" height="300" fill="#FF0066"></rect><g transform="translate(482.4481008691415 156.18023444701947)"><path d="M49.6 -94C64.2 -77.5 75.8 -64 79.6 -48.8C83.3 -33.7 79.2 -16.8 83.3 2.4C87.5 21.7 100.1 43.3 99.4 63.8C98.7 84.3 84.9 103.7 66.1 114.7C47.3 125.7 23.7 128.3 4.3 120.8C-15 113.3 -30 95.6 -47.6 84C-65.2 72.3 -85.4 66.6 -95.8 53.7C-106.1 40.7 -106.6 20.3 -99.8 3.9C-93 -12.5 -79 -25 -73.1 -45.6C-67.1 -66.3 -69.3 -95.1 -58.5 -113.8C-47.7 -132.6 -23.8 -141.3 -3.2 -135.8C17.5 -130.3 35 -110.6 49.6 -94" fill="#BB004B"></path></g></svg>