<svg id="visual" viewBox="0 0 960 300" width="960" height="300" xmlns="http://www.w3.org/2000/svg" xmlns:xlink="http://www.w3.org/1999/xlink" version="1.1"><rect x="0" y="0" width="960" height="300" fill="#202731"></rect><path d="M0 179L7 190C14 201 28 223 41.8 232.3C55.7 241.7 69.3 238.3 83.2 237.2C97 236 111 237 125 237.5C139 238 153 238 167 229.5C181 221 195 204 208.8 199.3C222.7 194.7 236.3 202.3 250.2 209.8C264 217.3 278 224.7 292 226.2C306 227.7 320 223.3 334 225.2C348 227 362 235 375.8 238.2C389.7 241.3 403.3 239.7 417.2 228.8C431 218 445 198 459 196.5C473 195 487 212 501 215.8C515 219.7 529 210.3 542.8 211.7C556.7 213 570.3 225 584.2 229.2C598 233.3 612 229.7 626 230.8C640 232 654 238 668 237.5C682 237 696 230 709.8 220.3C723.7 210.7 737.3 198.3 751.2 198.2C765 198 779 210 793 214.7C807 219.3 821 216.7 835 215.5C849 214.3 863 214.7 876.8 213.2C890.7 211.7 904.3 208.3 918.2 209C932 209.7 946 214.3 953 216.7L960 219L960 0L953 0C946 0 932 0 918.2 0C904.3 0 890.7 0 876.8 0C863 0 849 0 835 0C821 0 807 0 793 0C779 0 765 0 751.2 0C737.3 0 723.7 0 709.8 0C696 0 682 0 668 0C654 0 640 0 626 0C612 0 598 0 584.2 0C570.3 0 556.7 0 542.8 0C529 0 515 0 501 0C487 0 473 0 459 0C445 0 431 0 417.2 0C403.3 0 389.7 0 375.8 0C362 0 348 0 334 0C320 0 306 0 292 0C278 0 264 0 250.2 0C236.3 0 222.7 0 208.8 0C195 0 181 0 167 0C153 0 139 0 125 0C111 0 97 0 83.2 0C69.3 0 55.7 0 41.8 0C28 0 14 0 7 0L0 0Z" fill="#000000"></path><path d="M0 134L7 141.2C14 148.3 28 162.7 41.8 163.8C55.7 165 69.3 153 83.2 149.7C97 146.3 111 151.7 125 158.7C139 165.7 153 174.3 167 175.7C181 177 195 171 208.8 171.7C222.7 172.3 236.3 179.7 250.2 182.8C264 186 278 185 292 178.5C306 172 320 160 334 153.8C348 147.7 362 147.3 375.8 146.7C389.7 146 403.3 145 417.2 149C431 153 445 162 459 159.7C473 157.3 487 143.7 501 141C515 138.3 529 146.7 542.8 147.5C556.7 148.3 570.3 141.7 584.2 140.5C598 139.3 612 143.7 626 144.5C640 145.3 654 142.7 668 147.3C682 152 696 164 709.8 171.7C723.7 179.3 737.3 182.7 751.2 179.7C765 176.7 779 167.3 793 164C807 160.7 821 163.3 835 161.8C849 160.3 863 154.7 876.8 154C890.7 153.3 904.3 157.7 918.2 157.8C932 158 946 154 953 152L960 150L960 0L953 0C946 0 932 0 918.2 0C904.3 0 890.7 0 876.8 0C863 0 849 0 835 0C821 0 807 0 793 0C779 0 765 0 751.2 0C737.3 0 723.7 0 709.8 0C696 0 682 0 668 0C654 0 640 0 626 0C612 0 598 0 584.2 0C570.3 0 556.7 0 542.8 0C529 0 515 0 501 0C487 0 473 0 459 0C445 0 431 0 417.2 0C403.3 0 389.7 0 375.8 0C362 0 348 0 334 0C320 0 306 0 292 0C278 0 264 0 250.2 0C236.3 0 222.7 0 208.8 0C195 0 181 0 167 0C153 0 139 0 125 0C111 0 97 0 83.2 0C69.3 0 55.7 0 41.8 0C28 0 14 0 7 0L0 0Z" fill="#840012"></path><path d="M0 102L7 105C14 108 28 114 41.8 113.8C55.7 113.7 69.3 107.3 83.2 108.2C97 109 111 117 125 114.8C139 112.7 153 100.3 167 100C181 99.7 195 111.3 208.8 113.8C222.7 116.3 236.3 109.7 250.2 110C264 110.3 278 117.7 292 122.3C306 127 320 129 334 125.3C348 121.7 362 112.3 375.8 104.3C389.7 96.3 403.3 89.7 417.2 88.7C431 87.7 445 92.3 459 93.7C473 95 487 93 501 99.3C515 105.7 529 120.3 542.8 119.8C556.7 119.3 570.3 103.7 584.2 95.7C598 87.7 612 87.3 626 87.5C640 87.7 654 88.3 668 94.2C682 100 696 111 709.8 116.2C723.7 121.3 737.3 120.7 751.2 123.2C765 125.7 779 131.3 793 129.5C807 127.7 821 118.3 835 110C849 101.7 863 94.3 876.8 93.8C890.7 93.3 904.3 99.7 918.2 101.5C932 103.3 946 100.7 953 99.3L960 98L960 0L953 0C946 0 932 0 918.2 0C904.3 0 890.7 0 876.8 0C863 0 849 0 835 0C821 0 807 0 793 0C779 0 765 0 751.2 0C737.3 0 723.7 0 709.8 0C696 0 682 0 668 0C654 0 640 0 626 0C612 0 598 0 584.2 0C570.3 0 556.7 0 542.8 0C529 0 515 0 501 0C487 0 473 0 459 0C445 0 431 0 417.2 0C403.3 0 389.7 0 375.8 0C362 0 348 0 334 0C320 0 306 0 292 0C278 0 264 0 250.2 0C236.3 0 222.7 0 208.8 0C195 0 181 0 167 0C153 0 139 0 125 0C111 0 97 0 83.2 0C69.3 0 55.7 0 41.8 0C28 0 14 0 7 0L0 0Z" fill="#c4003b"></path><path d="M0 56L7 60C14 64 28 72 41.8 73.8C55.7 75.7 69.3 71.3 83.2 70.8C97 70.3 111 73.7 125 68.7C139 63.7 153 50.3 167 45.2C181 40 195 43 208.8 49.8C222.7 56.7 236.3 67.3 250.2 68C264 68.7 278 59.3 292 54.2C306 49 320 48 334 46.3C348 44.7 362 42.3 375.8 42.5C389.7 42.7 403.3 45.3 417.2 47.8C431 50.3 445 52.7 459 57.2C473 61.7 487 68.3 501 71C515 73.7 529 72.3 542.8 70.3C556.7 68.3 570.3 65.7 584.2 67C598 68.3 612 73.7 626 73.5C640 73.3 654 67.7 668 63.8C682 60 696 58 709.8 59C723.7 60 737.3 64 751.2 65.7C765 67.3 779 66.7 793 62.3C807 58 821 50 835 45.5C849 41 863 40 876.8 40.5C890.7 41 904.3 43 918.2 45.5C932 48 946 51 953 52.5L960 54L960 0L953 0C946 0 932 0 918.2 0C904.3 0 890.7 0 876.8 0C863 0 849 0 835 0C821 0 807 0 793 0C779 0 765 0 751.2 0C737.3 0 723.7 0 709.8 0C696 0 682 0 668 0C654 0 640 0 626 0C612 0 598 0 584.2 0C570.3 0 556.7 0 542.8 0C529 0 515 0 501 0C487 0 473 0 459 0C445 0 431 0 417.2 0C403.3 0 389.7 0 375.8 0C362 0 348 0 334 0C320 0 306 0 292 0C278 0 264 0 250.2 0C236.3 0 222.7 0 208.8 0C195 0 181 0 167 0C153 0 139 0 125 0C111 0 97 0 83.2 0C69.3 0 55.7 0 41.8 0C28 0 14 0 7 0L0 0Z" fill="#ff0066"></path></svg>