<svg id="visual" viewBox="0 0 960 300" width="960" height="300" xmlns="http://www.w3.org/2000/svg" xmlns:xlink="http://www.w3.org/1999/xlink" version="1.1"><rect x="0" y="0" width="960" height="300" fill="#202731"></rect><path d="M0 74L10.7 82C21.3 90 42.7 106 64 103.7C85.3 101.3 106.7 80.7 128 84.5C149.3 88.3 170.7 116.7 192 131.2C213.3 145.7 234.7 146.3 256 136.5C277.3 126.7 298.7 106.3 320 90.8C341.3 75.3 362.7 64.7 384 67C405.3 69.3 426.7 84.7 448 92.5C469.3 100.3 490.7 100.7 512 96C533.3 91.3 554.7 81.7 576 89C597.3 96.3 618.7 120.7 640 123.5C661.3 126.3 682.7 107.7 704 100.5C725.3 93.3 746.7 97.7 768 96.5C789.3 95.3 810.7 88.7 832 85.8C853.3 83 874.7 84 896 94.7C917.3 105.3 938.7 125.7 949.3 135.8L960 146L960 0L949.3 0C938.7 0 917.3 0 896 0C874.7 0 853.3 0 832 0C810.7 0 789.3 0 768 0C746.7 0 725.3 0 704 0C682.7 0 661.3 0 640 0C618.7 0 597.3 0 576 0C554.7 0 533.3 0 512 0C490.7 0 469.3 0 448 0C426.7 0 405.3 0 384 0C362.7 0 341.3 0 320 0C298.7 0 277.3 0 256 0C234.7 0 213.3 0 192 0C170.7 0 149.3 0 128 0C106.7 0 85.3 0 64 0C42.7 0 21.3 0 10.7 0L0 0Z" fill="#000000"></path><path d="M0 88L10.7 93.8C21.3 99.7 42.7 111.3 64 103.7C85.3 96 106.7 69 128 58.2C149.3 47.3 170.7 52.7 192 56.2C213.3 59.7 234.7 61.3 256 59.2C277.3 57 298.7 51 320 58.2C341.3 65.3 362.7 85.7 384 84.5C405.3 83.3 426.7 60.7 448 49.3C469.3 38 490.7 38 512 51.3C533.3 64.7 554.7 91.3 576 101C597.3 110.7 618.7 103.3 640 100.2C661.3 97 682.7 98 704 102.3C725.3 106.7 746.7 114.3 768 110.5C789.3 106.7 810.7 91.3 832 78C853.3 64.7 874.7 53.3 896 47.7C917.3 42 938.7 42 949.3 42L960 42L960 0L949.3 0C938.7 0 917.3 0 896 0C874.7 0 853.3 0 832 0C810.7 0 789.3 0 768 0C746.7 0 725.3 0 704 0C682.7 0 661.3 0 640 0C618.7 0 597.3 0 576 0C554.7 0 533.3 0 512 0C490.7 0 469.3 0 448 0C426.7 0 405.3 0 384 0C362.7 0 341.3 0 320 0C298.7 0 277.3 0 256 0C234.7 0 213.3 0 192 0C170.7 0 149.3 0 128 0C106.7 0 85.3 0 64 0C42.7 0 21.3 0 10.7 0L0 0Z" fill="#00351b"></path><path d="M0 37L10.7 38.5C21.3 40 42.7 43 64 51.7C85.3 60.3 106.7 74.7 128 82.5C149.3 90.3 170.7 91.7 192 83.7C213.3 75.7 234.7 58.3 256 54.5C277.3 50.7 298.7 60.3 320 60C341.3 59.7 362.7 49.3 384 48C405.3 46.7 426.7 54.3 448 54.7C469.3 55 490.7 48 512 51.7C533.3 55.3 554.7 69.7 576 73C597.3 76.3 618.7 68.7 640 58.7C661.3 48.7 682.7 36.3 704 33C725.3 29.7 746.7 35.3 768 35.5C789.3 35.7 810.7 30.3 832 36.5C853.3 42.7 874.7 60.3 896 63.3C917.3 66.3 938.7 54.7 949.3 48.8L960 43L960 0L949.3 0C938.7 0 917.3 0 896 0C874.7 0 853.3 0 832 0C810.7 0 789.3 0 768 0C746.7 0 725.3 0 704 0C682.7 0 661.3 0 640 0C618.7 0 597.3 0 576 0C554.7 0 533.3 0 512 0C490.7 0 469.3 0 448 0C426.7 0 405.3 0 384 0C362.7 0 341.3 0 320 0C298.7 0 277.3 0 256 0C234.7 0 213.3 0 192 0C170.7 0 149.3 0 128 0C106.7 0 85.3 0 64 0C42.7 0 21.3 0 10.7 0L0 0Z" fill="#005f41"></path><path d="M0 57L10.7 54.8C21.3 52.7 42.7 48.3 64 51.2C85.3 54 106.7 64 128 63C149.3 62 170.7 50 192 46C213.3 42 234.7 46 256 43C277.3 40 298.7 30 320 28.8C341.3 27.7 362.7 35.3 384 43C405.3 50.7 426.7 58.3 448 54C469.3 49.7 490.7 33.3 512 25.3C533.3 17.3 554.7 17.7 576 22.8C597.3 28 618.7 38 640 40.2C661.3 42.3 682.7 36.7 704 39.5C725.3 42.3 746.7 53.7 768 60.8C789.3 68 810.7 71 832 68C853.3 65 874.7 56 896 54.5C917.3 53 938.7 59 949.3 62L960 65L960 0L949.3 0C938.7 0 917.3 0 896 0C874.7 0 853.3 0 832 0C810.7 0 789.3 0 768 0C746.7 0 725.3 0 704 0C682.7 0 661.3 0 640 0C618.7 0 597.3 0 576 0C554.7 0 533.3 0 512 0C490.7 0 469.3 0 448 0C426.7 0 405.3 0 384 0C362.7 0 341.3 0 320 0C298.7 0 277.3 0 256 0C234.7 0 213.3 0 192 0C170.7 0 149.3 0 128 0C106.7 0 85.3 0 64 0C42.7 0 21.3 0 10.7 0L0 0Z" fill="#0a8b68"></path><path d="M0 25L10.7 28.2C21.3 31.3 42.7 37.7 64 34.3C85.3 31 106.7 18 128 14.5C149.3 11 170.7 17 192 17.3C213.3 17.7 234.7 12.3 256 13.5C277.3 14.7 298.7 22.3 320 21.5C341.3 20.7 362.7 11.3 384 13.2C405.3 15 426.7 28 448 31.8C469.3 35.7 490.7 30.3 512 24.8C533.3 19.3 554.7 13.7 576 15.5C597.3 17.3 618.7 26.7 640 31.5C661.3 36.3 682.7 36.7 704 33.7C725.3 30.7 746.7 24.3 768 18.8C789.3 13.3 810.7 8.7 832 7.7C853.3 6.7 874.7 9.3 896 11C917.3 12.7 938.7 13.3 949.3 13.7L960 14L960 0L949.3 0C938.7 0 917.3 0 896 0C874.7 0 853.3 0 832 0C810.7 0 789.3 0 768 0C746.7 0 725.3 0 704 0C682.7 0 661.3 0 640 0C618.7 0 597.3 0 576 0C554.7 0 533.3 0 512 0C490.7 0 469.3 0 448 0C426.7 0 405.3 0 384 0C362.7 0 341.3 0 320 0C298.7 0 277.3 0 256 0C234.7 0 213.3 0 192 0C170.7 0 149.3 0 128 0C106.7 0 85.3 0 64 0C42.7 0 21.3 0 10.7 0L0 0Z" fill="#0eb994"></path></svg>